<mxfile host="65bd71144e" pages="7">
    <diagram id="hQUKjOlyIDjWqmTV733w" name="Portal componenter">
        <mxGraphModel dx="903" dy="3984" grid="1" gridSize="10" guides="1" tooltips="1" connect="1" arrows="1" fold="1" page="1" pageScale="1" pageWidth="827" pageHeight="1169" math="0" shadow="0">
            <root>
                <mxCell id="Jkm6guCW9Jv9TuIEkJrF-0"/>
                <mxCell id="Jkm6guCW9Jv9TuIEkJrF-1" parent="Jkm6guCW9Jv9TuIEkJrF-0"/>
                <mxCell id="Xr4Hn3HalT5ym5EU1n4g-0" value="" style="rounded=1;whiteSpace=wrap;html=1;labelBackgroundColor=none;fontColor=#33001A;align=center;verticalAlign=top;arcSize=2;" parent="Jkm6guCW9Jv9TuIEkJrF-1" vertex="1">
                    <mxGeometry x="750" y="-3360" width="860" height="1060" as="geometry"/>
                </mxCell>
                <mxCell id="Xr4Hn3HalT5ym5EU1n4g-1" value="FRONTEND" style="rounded=1;whiteSpace=wrap;html=1;align=center;fillColor=#dae8fc;strokeColor=#6c8ebf;fontStyle=1" parent="Jkm6guCW9Jv9TuIEkJrF-1" vertex="1">
                    <mxGeometry x="1180" y="-2780" width="120" height="387" as="geometry"/>
                </mxCell>
                <mxCell id="Xr4Hn3HalT5ym5EU1n4g-2" value="&lt;b&gt;Mapbox (Kort visning)&lt;br&gt;&lt;/b&gt;&lt;br&gt;&lt;span style=&quot;font-weight: 700 ; background-color: rgb(255 , 255 , 255)&quot;&gt;Ind:&lt;/span&gt;&amp;nbsp;&lt;span style=&quot;background-color: rgb(255 , 255 , 255)&quot;&gt;selectedFeature&lt;/span&gt;&lt;br style=&quot;font-weight: 700&quot;&gt;&lt;span style=&quot;font-weight: 700 ; background-color: rgb(255 , 255 , 255)&quot;&gt;Ud:&lt;/span&gt;&amp;nbsp;?" style="rounded=1;whiteSpace=wrap;html=1;align=center;" parent="Jkm6guCW9Jv9TuIEkJrF-1" vertex="1">
                    <mxGeometry x="827" y="-2647" width="310" height="117" as="geometry"/>
                </mxCell>
                <mxCell id="Xr4Hn3HalT5ym5EU1n4g-3" value="Svg viewer&lt;br&gt;&lt;br&gt;&lt;span style=&quot;font-weight: normal&quot;&gt;- Plantegninger&lt;/span&gt;" style="rounded=1;whiteSpace=wrap;html=1;align=center;fillColor=#fff2cc;strokeColor=#d6b656;fontStyle=1" parent="Jkm6guCW9Jv9TuIEkJrF-1" vertex="1">
                    <mxGeometry x="1340" y="-2510" width="160" height="117" as="geometry"/>
                </mxCell>
                <mxCell id="Xr4Hn3HalT5ym5EU1n4g-4" value="3D viewer&lt;br&gt;&lt;br&gt;&lt;span style=&quot;font-weight: normal&quot;&gt;- Threejs&lt;/span&gt;" style="rounded=1;whiteSpace=wrap;html=1;align=center;fillColor=#fff2cc;strokeColor=#d6b656;fontStyle=1" parent="Jkm6guCW9Jv9TuIEkJrF-1" vertex="1">
                    <mxGeometry x="1340" y="-2645" width="160" height="117" as="geometry"/>
                </mxCell>
                <mxCell id="Xr4Hn3HalT5ym5EU1n4g-5" value="Document viewer" style="rounded=1;whiteSpace=wrap;html=1;align=center;fillColor=#fff2cc;strokeColor=#d6b656;fontStyle=1" parent="Jkm6guCW9Jv9TuIEkJrF-1" vertex="1">
                    <mxGeometry x="1340" y="-2780" width="155" height="117" as="geometry"/>
                </mxCell>
                <mxCell id="Xr4Hn3HalT5ym5EU1n4g-6" value="Ejendomsstruktur &lt;br&gt;- Editor" style="rounded=1;whiteSpace=wrap;html=1;align=center;fillColor=#d5e8d4;strokeColor=#82b366;fontStyle=1" parent="Jkm6guCW9Jv9TuIEkJrF-1" vertex="1">
                    <mxGeometry x="1010" y="-3110" width="150" height="117" as="geometry"/>
                </mxCell>
                <mxCell id="Xr4Hn3HalT5ym5EU1n4g-7" value="Document treeview" style="rounded=1;whiteSpace=wrap;html=1;align=center;fillColor=#d5e8d4;strokeColor=#82b366;fontStyle=1" parent="Jkm6guCW9Jv9TuIEkJrF-1" vertex="1">
                    <mxGeometry x="1390" y="-3200" width="150" height="117" as="geometry"/>
                </mxCell>
                <mxCell id="EpNvZ6u7e70Ig9vpi3BW-0" value="&lt;b&gt;Bruger&lt;/b&gt;" style="rounded=1;whiteSpace=wrap;html=1;align=center;fillColor=#ffe6cc;strokeColor=#d79b00;" parent="Jkm6guCW9Jv9TuIEkJrF-1" vertex="1">
                    <mxGeometry x="1010" y="-3290" width="150" height="117" as="geometry"/>
                </mxCell>
                <mxCell id="EpNvZ6u7e70Ig9vpi3BW-1" value="&lt;b&gt;Rettighedsstyring&lt;/b&gt;&lt;br&gt;&lt;br&gt;- Org og projekter" style="rounded=1;whiteSpace=wrap;html=1;align=center;fillColor=#ffe6cc;strokeColor=#d79b00;" parent="Jkm6guCW9Jv9TuIEkJrF-1" vertex="1">
                    <mxGeometry x="1190" y="-3290" width="150" height="117" as="geometry"/>
                </mxCell>
                <mxCell id="SF8MRIHptrYq8vFEZXrt-0" value="&lt;span style=&quot;background-color: rgb(255 , 255 , 255)&quot;&gt;Ejendomsstruktur&lt;br&gt;&lt;br&gt;Ind:&lt;span style=&quot;font-weight: normal&quot;&gt;&amp;nbsp;Ejendomsstruktur&lt;/span&gt;&lt;br&gt;Ud:&lt;span style=&quot;font-weight: normal&quot;&gt;&amp;nbsp;selectedFeature&lt;/span&gt;&lt;/span&gt;" style="rounded=1;whiteSpace=wrap;html=1;align=center;fontStyle=1;" parent="Jkm6guCW9Jv9TuIEkJrF-1" vertex="1">
                    <mxGeometry x="827" y="-2780" width="310" height="117" as="geometry"/>
                </mxCell>
                <mxCell id="SF8MRIHptrYq8vFEZXrt-1" value="Data viewer / En rÃ¦kke af komponenter&lt;br&gt;&lt;br&gt;&lt;span style=&quot;background-color: rgb(255 , 255 , 255)&quot;&gt;Ind:&lt;/span&gt;&lt;span style=&quot;font-weight: 400&quot;&gt;&amp;nbsp;&lt;/span&gt;&lt;span style=&quot;font-weight: 400 ; background-color: rgb(255 , 255 , 255)&quot;&gt;selectedFeature&lt;/span&gt;" style="rounded=1;whiteSpace=wrap;html=1;align=center;fontStyle=1" parent="Jkm6guCW9Jv9TuIEkJrF-1" vertex="1">
                    <mxGeometry x="827" y="-2510" width="310" height="117" as="geometry"/>
                </mxCell>
                <mxCell id="SF8MRIHptrYq8vFEZXrt-2" value="&lt;h1&gt;&lt;font style=&quot;font-size: 20px&quot;&gt;Component:&lt;/font&gt;&lt;/h1&gt;&lt;div&gt;- Props bruges til data ind i componenterne&lt;/div&gt;&lt;div&gt;- Emits bruges til data ud fra componenterne&lt;/div&gt;" style="text;html=1;strokeColor=none;fillColor=none;spacing=5;spacingTop=-20;whiteSpace=wrap;overflow=hidden;rounded=0;" parent="Jkm6guCW9Jv9TuIEkJrF-1" vertex="1">
                    <mxGeometry x="822" y="-2890" width="320" height="120" as="geometry"/>
                </mxCell>
            </root>
        </mxGraphModel>
    </diagram>
</mxfile>